<?xml version="1.0" standalone="no"?>
<!DOCTYPE svg PUBLIC "-//W3C//DTD SVG 20010904//EN"
 "http://www.w3.org/TR/2001/REC-SVG-20010904/DTD/svg10.dtd">
<svg version="1.0" xmlns="http://www.w3.org/2000/svg"
 width="30.000000pt" height="30.000000pt" viewBox="0 0 30.000000 30.000000"
 preserveAspectRatio="xMidYMid meet">

<g transform="translate(0.000000,30.000000) scale(0.100000,-0.100000)"
fill="#000000" stroke="none">
<path d="M60 250 c0 -5 5 -10 10 -10 6 0 10 -37 10 -90 0 -53 -4 -90 -10 -90
-5 0 -10 -4 -10 -10 0 -6 32 -10 75 -10 62 0 79 4 95 20 25 25 26 64 0 90 -11
11 -15 22 -10 25 16 10 11 51 -8 68 -21 19 -152 25 -152 7z m123 -32 c13 -20
-6 -48 -34 -48 -15 0 -19 7 -19 36 0 31 3 35 21 32 12 -2 27 -10 32 -20z m7
-87 c5 -11 10 -24 10 -30 0 -16 -30 -41 -51 -41 -16 0 -19 7 -19 45 0 41 2 45
25 45 14 0 29 -8 35 -19z"/>
</g>
</svg>
