<?xml version="1.0" standalone="no"?>
<!DOCTYPE svg PUBLIC "-//W3C//DTD SVG 20010904//EN"
 "http://www.w3.org/TR/2001/REC-SVG-20010904/DTD/svg10.dtd">
<svg version="1.0" xmlns="http://www.w3.org/2000/svg"
 width="30.000000pt" height="30.000000pt" viewBox="0 0 30.000000 30.000000"
 preserveAspectRatio="xMidYMid meet">

<g transform="translate(0.000000,30.000000) scale(0.100000,-0.100000)"
fill="#000000" stroke="none">
<path d="M160 256 c0 -2 -9 -49 -21 -105 -18 -91 -20 -125 -4 -109 5 4 45 192
45 209 0 5 -4 9 -10 9 -5 0 -10 -2 -10 -4z"/>
<path d="M42 185 l-22 -35 22 -35 c35 -53 52 -48 21 6 -16 27 -16 31 0 58 31
54 14 59 -21 6z"/>
<path d="M220 214 c0 -3 9 -19 21 -35 l20 -29 -20 -29 c-23 -32 -26 -41 -12
-41 5 0 19 16 31 35 l22 35 -22 35 c-19 31 -40 46 -40 29z"/>
</g>
</svg>
