<?xml version="1.0" encoding="UTF-8"?>
<svg version="1.1" xmlns="http://www.w3.org/2000/svg" width="30" height="30">
<path d="M0 0 C3.91344537 0.78718729 5.37235627 2.3723423 7.71875 5.546875 C8.1953125 8.359375 8.1953125 8.359375 7.71875 11.546875 C5.92390074 13.77878171 4.31213551 15.52908417 2.21875 17.421875 C1.69410156 17.91945313 1.16945313 18.41703125 0.62890625 18.9296875 C-0.66129502 20.14951415 -1.96956732 21.35017749 -3.28125 22.546875 C-2.29125 22.876875 -1.30125 23.206875 -0.28125 23.546875 C-0.28125 24.206875 -0.28125 24.866875 -0.28125 25.546875 C-11.09433648 26.32293384 -11.09433648 26.32293384 -15.53125 23.421875 C-17.66808834 19.91135487 -17.92807571 18.60160334 -17.28125 14.546875 C-15.38511407 11.7609788 -13.07639135 9.50436536 -10.65625 7.171875 C-10.03878906 6.53121094 -9.42132812 5.89054688 -8.78515625 5.23046875 C-5.83282263 2.31542777 -4.16859053 0.69476509 0 0 Z M-9.28125 11.546875 C-10.93125 13.196875 -12.58125 14.846875 -14.28125 16.546875 C-13.23250002 19.16874994 -12.63193687 20.34058861 -10.15625 21.796875 C-9.5375 22.044375 -8.91875 22.291875 -8.28125 22.546875 C-6.63125 20.896875 -4.98125 19.246875 -3.28125 17.546875 C-4.32999998 14.92500006 -4.93056313 13.75316139 -7.40625 12.296875 C-8.025 12.049375 -8.64375 11.801875 -9.28125 11.546875 Z " fill="#000000" transform="translate(19.28125,1.453125)"/>
<path d="M0 0 C0.66 0 1.32 0 2 0 C2 0.66 2 1.32 2 2 C1.34 2 0.68 2 0 2 C0 1.34 0 0.68 0 0 Z " fill="#000000" transform="translate(25,25)"/>
<path d="M0 0 C0.66 0 1.32 0 2 0 C2 0.66 2 1.32 2 2 C1.34 2 0.68 2 0 2 C0 1.34 0 0.68 0 0 Z " fill="#000000" transform="translate(21,25)"/>
</svg>
