<?xml version="1.0" standalone="no"?>
<!DOCTYPE svg PUBLIC "-//W3C//DTD SVG 20010904//EN"
 "http://www.w3.org/TR/2001/REC-SVG-20010904/DTD/svg10.dtd">
<svg version="1.0" xmlns="http://www.w3.org/2000/svg"
 width="30.000000pt" height="30.000000pt" viewBox="0 0 30.000000 30.000000"
 preserveAspectRatio="xMidYMid meet">

<g transform="translate(0.000000,30.000000) scale(0.100000,-0.100000)"
fill="#000000" stroke="none">
<path d="M35 150 c0 -66 1 -70 22 -70 20 0 22 4 17 30 -6 28 -4 30 21 30 25 0
27 -2 22 -30 -6 -26 -4 -30 16 -30 21 0 22 4 22 70 0 66 -1 70 -22 70 -20 0
-22 -4 -16 -30 5 -28 3 -30 -22 -30 -25 0 -27 2 -21 30 5 26 3 30 -17 30 -21
0 -22 -4 -22 -70z"/>
<path d="M196 185 c-5 -14 -1 -16 27 -10 29 5 30 4 15 -8 -22 -17 -23 -27 -3
-27 8 0 15 -5 15 -11 0 -7 -11 -8 -30 -4 -25 5 -29 4 -24 -9 8 -20 57 -21 73
-3 6 8 8 17 4 20 -3 4 -6 19 -7 34 -1 24 -6 28 -32 31 -22 2 -33 -2 -38 -13z"/>
</g>
</svg>
