<?xml version="1.0" standalone="no"?>
<!DOCTYPE svg PUBLIC "-//W3C//DTD SVG 20010904//EN"
 "http://www.w3.org/TR/2001/REC-SVG-20010904/DTD/svg10.dtd">
<svg version="1.0" xmlns="http://www.w3.org/2000/svg"
 width="30.000000pt" height="30.000000pt" viewBox="0 0 30.000000 30.000000"
 preserveAspectRatio="xMidYMid meet">

<g transform="translate(0.000000,30.000000) scale(0.100000,-0.100000)"
fill="#000000" stroke="none">
<path d="M0 240 c0 -5 5 -10 10 -10 6 0 10 -30 10 -70 0 -40 -4 -70 -10 -70
-5 0 -10 -4 -10 -10 0 -5 18 -10 40 -10 22 0 40 5 40 10 0 6 -4 10 -10 10 -5
0 -10 14 -10 30 0 28 2 30 40 30 38 0 40 -2 40 -30 0 -16 -4 -30 -10 -30 -5 0
-10 -4 -10 -10 0 -5 18 -10 40 -10 22 0 40 5 40 10 0 6 -4 10 -10 10 -6 0 -10
30 -10 70 0 40 4 70 10 70 6 0 10 5 10 10 0 6 -18 10 -40 10 -22 0 -40 -4 -40
-10 0 -5 5 -10 10 -10 6 0 10 -13 10 -30 0 -28 -2 -30 -40 -30 -38 0 -40 2
-40 30 0 17 5 30 10 30 6 0 10 5 10 10 0 6 -18 10 -40 10 -22 0 -40 -4 -40
-10z"/>
<path d="M248 209 c-22 -12 -24 -41 -3 -33 12 5 15 -4 15 -45 0 -44 3 -51 20
-51 18 0 20 7 20 70 0 60 -2 70 -17 70 -10 0 -26 -5 -35 -11z"/>
</g>
</svg>
