<?xml version="1.0" standalone="no"?>
<!DOCTYPE svg PUBLIC "-//W3C//DTD SVG 20010904//EN"
 "http://www.w3.org/TR/2001/REC-SVG-20010904/DTD/svg10.dtd">
<svg version="1.0" xmlns="http://www.w3.org/2000/svg"
 width="30.000000pt" height="30.000000pt" viewBox="0 0 30.000000 30.000000"
 preserveAspectRatio="xMidYMid meet">

<g transform="translate(0.000000,30.000000) scale(0.100000,-0.100000)"
fill="#000000" stroke="none">
<path d="M25 150 c0 -76 1 -80 22 -80 19 0 21 4 16 35 -6 35 -5 35 32 35 37 0
38 0 32 -35 -5 -31 -3 -35 16 -35 21 0 22 4 22 80 0 76 -1 80 -22 80 -19 0
-21 -4 -16 -35 6 -35 5 -35 -32 -35 -37 0 -38 0 -32 35 5 31 3 35 -16 35 -21
0 -22 -4 -22 -80z"/>
<path d="M213 203 c-15 -5 -18 -33 -4 -33 6 0 13 5 16 10 3 6 10 10 16 10 17
0 9 -26 -16 -50 -38 -36 -32 -50 20 -50 25 0 45 5 45 10 0 6 -12 10 -27 10
l-26 0 21 23 c44 47 13 94 -45 70z"/>
</g>
</svg>
