<?xml version="1.0" standalone="no"?>
<!DOCTYPE svg PUBLIC "-//W3C//DTD SVG 20010904//EN"
 "http://www.w3.org/TR/2001/REC-SVG-20010904/DTD/svg10.dtd">
<svg version="1.0" xmlns="http://www.w3.org/2000/svg"
 width="50.000000pt" height="50.000000pt" viewBox="0 0 50.000000 50.000000"
 preserveAspectRatio="xMidYMid meet">

<g transform="translate(0.000000,50.000000) scale(0.100000,-0.100000)"
fill="#000000" stroke="none">
<path d="M207 462 c-33 -36 -8 -92 40 -92 25 0 53 30 53 57 0 46 -62 69 -93
35z"/>
<path d="M140 300 c0 -38 2 -40 30 -40 l30 0 0 -80 0 -80 -30 0 c-28 0 -30 -2
-30 -40 l0 -40 110 0 110 0 0 40 c0 38 -2 40 -30 40 l-30 0 0 120 0 120 -80 0
-80 0 0 -40z"/>
</g>
</svg>
