<?xml version="1.0" standalone="no"?>
<!DOCTYPE svg PUBLIC "-//W3C//DTD SVG 20010904//EN"
 "http://www.w3.org/TR/2001/REC-SVG-20010904/DTD/svg10.dtd">
<svg version="1.0" xmlns="http://www.w3.org/2000/svg"
 width="30.000000pt" height="30.000000pt" viewBox="0 0 30.000000 30.000000"
 preserveAspectRatio="xMidYMid meet">

<g transform="translate(0.000000,30.000000) scale(0.100000,-0.100000)"
fill="#000000" stroke="none">
<path d="M120 251 c0 -5 5 -11 11 -13 17 -6 1 -178 -17 -178 -8 0 -14 -4 -14
-10 0 -5 18 -10 40 -10 37 0 55 13 29 22 -17 6 -1 178 17 178 8 0 14 5 14 10
0 6 -18 10 -40 10 -22 0 -40 -4 -40 -9z"/>
</g>
</svg>
