<?xml version="1.0" standalone="no"?>
<!DOCTYPE svg PUBLIC "-//W3C//DTD SVG 20010904//EN"
 "http://www.w3.org/TR/2001/REC-SVG-20010904/DTD/svg10.dtd">
<svg version="1.0" xmlns="http://www.w3.org/2000/svg"
 width="30.000000pt" height="30.000000pt" viewBox="0 0 30.000000 30.000000"
 preserveAspectRatio="xMidYMid meet">

<g transform="translate(0.000000,30.000000) scale(0.100000,-0.100000)"
fill="#000000" stroke="none">
<path d="M169 250 c-24 -23 -30 -37 -27 -62 3 -32 2 -33 -30 -30 -25 3 -39 -3
-62 -27 -17 -16 -30 -39 -30 -50 0 -27 34 -61 61 -61 25 0 79 52 79 77 0 13
-8 8 -31 -20 -17 -20 -38 -37 -48 -37 -21 0 -41 19 -41 40 0 22 41 60 65 60
17 0 17 -1 0 -20 -10 -11 -15 -23 -11 -27 4 -4 32 18 63 50 32 31 54 59 50 63
-4 4 -16 -1 -27 -11 -19 -18 -20 -17 -20 2 0 22 39 63 61 63 20 0 39 -20 39
-41 0 -10 -17 -31 -37 -48 -28 -23 -33 -31 -20 -31 25 0 77 54 77 79 0 12 -9
30 -20 41 -28 28 -57 25 -91 -10z"/>
</g>
</svg>
