<?xml version="1.0" standalone="no"?>
<!DOCTYPE svg PUBLIC "-//W3C//DTD SVG 20010904//EN"
 "http://www.w3.org/TR/2001/REC-SVG-20010904/DTD/svg10.dtd">
<svg version="1.0" xmlns="http://www.w3.org/2000/svg"
 width="30.000000pt" height="30.000000pt" viewBox="0 0 30.000000 30.000000"
 preserveAspectRatio="xMidYMid meet">

<g transform="translate(0.000000,30.000000) scale(0.100000,-0.100000)"
fill="#000000" stroke="none">
<path d="M68 193 c2 -38 10 -78 18 -90 27 -42 101 -42 128 0 8 12 16 52 18 90
4 66 4 67 -22 67 -25 0 -25 -1 -25 -76 0 -62 -3 -79 -17 -88 -13 -8 -23 -8
-35 0 -15 9 -18 26 -18 88 0 75 0 76 -25 76 -26 0 -26 -1 -22 -67z"/>
<path d="M60 40 c0 -6 37 -10 90 -10 53 0 90 4 90 10 0 6 -37 10 -90 10 -53 0
-90 -4 -90 -10z"/>
</g>
</svg>
